HIERARCHY
ROOT Hips
{
  OFFSET 0.000000 0.000000 0.000000
  CHANNELS 6 Xposition Yposition Zposition Zrotation Yrotation Xrotation
  JOINT Spine
  {
    OFFSET -0.021080 2.075730 -0.169808
    CHANNELS 3 Zrotation Yrotation Xrotation
    JOINT Spine1
    {
      OFFSET 0.050701 2.084387 -0.031413
      CHANNELS 3 Zrotation Yrotation Xrotation
      JOINT Spine2
      {
        OFFSET 0.059950 2.095031 0.048503
        CHANNELS 3 Zrotation Yrotation Xrotation
        JOINT Neck
        {
          OFFSET -0.107307 1.604075 0.313698
          CHANNELS 3 Zrotation Yrotation Xrotation
          JOINT Head
          {
            OFFSET 0.039111 1.691495 -0.141461
            CHANNELS 3 Zrotation Yrotation Xrotation
            End Site
            {
              OFFSET 0 0 0
            }
          }
        }
        JOINT LeftShoulder
        {
          OFFSET 3.523153 0.732192 -0.546943
          CHANNELS 3 Zrotation Yrotation Xrotation
          JOINT LeftArm
          {
            OFFSET 5.324620 -0.000000 -0.000000
            CHANNELS 3 Zrotation Yrotation Xrotation
            JOINT LeftForeArm
            {
              OFFSET 3.484020 -0.000000 -0.000000
              CHANNELS 3 Zrotation Yrotation Xrotation
              JOINT LeftHand
              {
                OFFSET 0.572476 -0.000000 -0.000000
                CHANNELS 3 Zrotation Yrotation Xrotation
                JOINT LeftHandIndex1
                {
                  OFFSET 0.461545 -0.000000 -0.000000
                  CHANNELS 3 Zrotation Yrotation Xrotation
                  End Site
                  {
                    OFFSET 0 0 0
                  }
                }
              }
            }
          }
        }
        JOINT RightShoulder
        {
          OFFSET -3.417658 0.935924 -0.100189
          CHANNELS 3 Zrotation Yrotation Xrotation
          JOINT RightArm
          {
            OFFSET -5.335890 -0.000000 -0.000000
            CHANNELS 3 Zrotation Yrotation Xrotation
            JOINT RightForeArm
            {
              OFFSET -3.641340 -0.000000 -0.000000
              CHANNELS 3 Zrotation Yrotation Xrotation
              JOINT RightHand
              {
                OFFSET -0.734811 -0.000000 -0.000000
                CHANNELS 3 Zrotation Yrotation Xrotation
                JOINT RightHandIndex1
                {
                  OFFSET -0.592424 -0.000000 -0.000000
                  CHANNELS 3 Zrotation Yrotation Xrotation
                  End Site
                  {
                    OFFSET 0 0 0
                  }
                }
              }
            }
          }
        }
      }
    }
  }
  JOINT LeftUpLeg
  {
    OFFSET 2.571388 -7.064838 0.000000
    CHANNELS 3 Zrotation Yrotation Xrotation
    JOINT LeftLeg
    {
      OFFSET 2.520174 -6.924128 0.000000
      CHANNELS 3 Zrotation Yrotation Xrotation
      JOINT LeftFoot
      {
        OFFSET 0.232946 -0.640014 2.102138
        CHANNELS 3 Zrotation Yrotation Xrotation
        JOINT LeftToeBase
        {
          OFFSET 0.000000 -0.000000 1.101390
          CHANNELS 3 Zrotation Yrotation Xrotation
          End Site
          {
            OFFSET 0 0 0
          }
        }
      }
    }
  }
  JOINT RightUpLeg
  {
    OFFSET -2.632579 -7.232958 0.000000
    CHANNELS 3 Zrotation Yrotation Xrotation
    JOINT RightLeg
    {
      OFFSET -2.547789 -6.999999 0.000000
      CHANNELS 3 Zrotation Yrotation Xrotation
      JOINT RightFoot
      {
        OFFSET -0.230669 -0.633756 2.121613
        CHANNELS 3 Zrotation Yrotation Xrotation
        JOINT RightToeBase
        {
          OFFSET -0.000000 -0.000000 1.110000
          CHANNELS 3 Zrotation Yrotation Xrotation
          End Site
          {
            OFFSET 0 0 0
          }
        }
      }
    }
  }
}
MOTION
Frames: 5
Frame Time: 0.00833333
-0.447549 18.963800 3.434350 -11.999800 -95.602900 9.721760 -24.968300 -3.157750 -1.957270 0.000000 0.000000 26.689700 6.046370 0.000000 13.050400 0.000000 0.000000 -28.543500 10.233900 4.119840 -14.530100 0.000000 0.000000 45.209400 -8.525410 0.000000 17.715900 0.000000 0.000000 17.126800 -4.488830 -0.691887 4.591790 6.834580 -1.055910 -6.510090 10.166400 -0.002621 -9.378500 -14.323900 -2.609270 -26.464200 6.854250 0.373681 3.647020 0.000000 -0.000000 0.000000 31.515600 34.468300 79.679600 0.000000 0.000000 21.920400 33.914500 0.000000 -10.892200 0.000000 0.000000 7.125020 0.000000 -0.000000 0.000000 -25.340900 -37.125600 65.922100 0.000000 0.000000 48.036600 7.395710 0.000000 -36.363300 0.000000 0.000000 7.125020
-0.448282 18.984300 3.383920 -10.935900 -95.682600 8.732380 -24.618600 -2.935360 -2.375290 0.000000 0.000000 27.058700 5.897060 0.000000 13.783200 0.000000 0.000000 -28.563800 10.878000 4.409440 -14.436500 0.000000 0.000000 44.853900 -9.304540 0.000000 17.494900 0.000000 0.000000 18.112600 -4.333040 -0.624108 4.559030 6.486100 -0.966119 -6.735500 9.677480 0.034657 -9.627870 -14.105800 -2.824200 -26.186400 6.831180 0.188081 3.625140 -0.000000 0.000000 0.000000 30.961200 34.081300 79.691000 0.000000 0.000000 22.064900 33.572500 0.000000 -10.836300 0.000000 0.000000 7.125020 -0.000000 0.000000 0.000000 -27.521300 -36.820300 69.276700 0.000000 0.000000 45.788700 7.236840 0.000000 -36.131400 0.000000 0.000000 7.125020
-0.449180 18.998400 3.329940 -11.158100 -95.683400 9.010600 -24.364300 -2.639870 -2.831740 0.000000 0.000000 27.495400 5.495490 0.000000 14.612200 0.000000 0.000000 -29.009400 11.366300 4.711410 -14.247400 0.000000 0.000000 44.439400 -9.713890 0.000000 17.486300 0.000000 0.000000 17.035900 -4.282160 -0.600310 4.522270 6.181610 -0.944313 -6.912020 9.307140 0.042387 -9.806280 -14.104000 -3.209590 -26.314000 6.841950 -0.046265 3.704290 0.000000 -0.000000 0.000000 30.676600 33.810700 79.880600 0.000000 0.000000 22.103100 33.325400 0.000000 -10.927200 0.000000 0.000000 7.125020 0.000000 -0.000000 0.000000 -29.629000 -36.386300 72.726000 0.000000 0.000000 43.567900 7.026050 0.000000 -35.965400 0.000000 0.000000 7.125020
-0.447917 19.010200 3.275620 -11.166100 -95.610900 9.080730 -24.058400 -2.561270 -3.339430 0.000000 0.000000 27.988200 5.361730 0.000000 15.572800 0.000000 0.000000 -28.759000 11.882600 4.883210 -13.966400 0.000000 0.000000 44.004500 -10.416300 0.000000 17.007100 0.000000 0.000000 14.132900 -4.237140 -0.624662 4.514080 6.013160 -0.984543 -7.086770 9.104740 0.024102 -9.989100 -15.012500 -3.618430 -26.647100 7.208440 -0.126267 3.894270 -0.000000 0.000000 0.000000 29.669500 33.686100 79.376200 0.000000 0.000000 22.232800 33.115400 0.000000 -11.063700 0.000000 0.000000 7.125020 -0.000000 0.000000 0.000000 -31.031400 -35.788500 75.859500 0.000000 0.000000 41.555000 6.161640 0.000000 -35.829000 0.000000 0.000000 7.125020
-0.442966 19.022400 3.218750 -11.138400 -95.578700 9.088680 -23.711900 -2.359810 -3.860990 0.000000 0.000000 28.521600 5.333580 0.000000 16.516700 0.000000 0.000000 -27.871200 12.395100 5.259410 -13.636200 0.000000 0.000000 43.576200 -11.513300 0.000000 15.958500 0.000000 0.000000 11.927600 -4.219810 -0.484422 4.629730 5.780940 -0.812495 -7.373770 8.834270 0.122382 -10.415200 -16.093300 -4.018940 -26.555100 7.588530 -0.201769 4.020870 0.000000 0.000000 0.000000 29.464700 33.228600 79.521900 0.000000 0.000000 22.225100 32.858600 0.000000 -10.777300 0.000000 0.000000 7.125020 0.000000 0.000000 0.000000 -31.899100 -35.153200 78.261800 0.000000 0.000000 39.653000 4.865510 0.000000 -35.836600 0.000000 0.000000 7.125020
